<svg width="185" height="68" viewBox="0 0 185 68" fill="none" xmlns="http://www.w3.org/2000/svg">
<path d="M43.8033 65.6764C42.465 66.1079 40.2607 66.1079 38.9223 65.6764C27.5071 62.1169 2 47.2674 2 22.0989C2 10.9888 11.8013 2 23.8857 2C31.0498 2 37.3872 5.16404 41.3628 10.0539C45.3385 5.16404 51.7153 2 58.8399 2C70.9243 2 80.7257 10.9888 80.7257 22.0989C80.7257 47.2674 55.2185 62.1169 43.8033 65.6764Z" fill="#D36135" stroke="#D36135" stroke-width="4" stroke-linecap="round" stroke-linejoin="round"/>
<path d="M39.8845 27.4644C38.0178 26.5055 35.627 25.6703 33.4471 24.7328C33.3759 24.7017 33.3262 24.6803 33.2985 24.6838C32.2919 24.2966 31.2023 24.0878 30.0677 24.0885C29.4904 24.0885 28.9449 24.1189 28.4278 24.1777C27.2082 24.3167 26.1455 24.6209 25.2322 25.0792C23.2888 25.8811 21.2534 26.6251 19.6197 27.4644C18.4727 28.0534 18.3669 29.1541 18.4443 29.6222C18.6518 30.8805 19.5118 34.1797 19.6888 34.8365C19.8395 35.3972 20.4611 35.8176 21.2112 35.9171C21.6371 38.1966 22.7232 40.205 24.2512 41.6638C25.0317 42.4077 25.9284 43.0085 26.9102 43.4234C27.8913 43.8382 28.958 44.0663 30.0677 44.0657C31.3315 44.0664 32.5393 43.7697 33.6296 43.2395C35.2661 42.443 36.6392 41.1245 37.6029 39.4839C38.2604 38.3653 38.7285 37.0938 38.9601 35.7298C39.3915 35.5348 39.713 35.2181 39.8153 34.8365C39.9923 34.1797 40.8524 30.8805 41.0598 29.6222C41.1373 29.1541 41.0315 28.0534 39.8845 27.4644ZM35.3601 40.0114C34.6722 40.8023 33.8585 41.4363 32.9639 41.8712C32.0692 42.3068 31.0951 42.5446 30.0677 42.5446C29.1662 42.5446 28.3047 42.3607 27.502 42.0219C26.7001 41.6831 25.9568 41.1881 25.3007 40.5631H25.3014C25.1134 40.3847 24.9343 40.1939 24.7621 39.9941C24.7663 39.9983 24.7711 40.0031 24.776 40.0072C28.6324 38.023 31.9967 34.2129 31.7533 29.9111C31.6344 27.8239 30.7066 26.4812 29.5997 25.6177C29.7532 25.6129 29.9081 25.6094 30.0678 25.6094C31.1124 25.6101 32.1004 25.8169 32.9978 26.2005C33.3573 26.354 33.7016 26.5365 34.03 26.7453C34.3093 27.5072 34.6689 28.5353 35.1141 29.9215C34.4863 33.9342 35.9285 35.5541 37.3825 35.8763C37.0423 37.4761 36.3274 38.8997 35.3601 40.0114Z" fill="#FFFFF3"/>
<path d="M30.2323 37.7091C29.1061 37.7091 28.1927 38.4517 28.1927 39.3684C28.1927 40.2852 29.1061 41.0277 30.2323 41.0277C31.3585 41.0277 32.2719 40.2852 32.2719 39.3684C32.2719 38.4517 31.3585 37.7091 30.2323 37.7091Z" fill="#FFFFF3"/>
<path d="M50.6749 34.4824C50.5915 34.3756 50.5404 34.2472 50.5278 34.1123C50.5153 33.9774 50.5416 33.8417 50.6038 33.7213C50.6661 33.601 50.7615 33.501 50.8788 33.4333C50.9962 33.3655 51.1305 33.3329 51.2658 33.3392H53.5483C53.6836 33.3329 53.818 33.3655 53.9353 33.4333C54.0526 33.501 54.1481 33.601 54.2103 33.7213C54.2725 33.8417 54.2989 33.9774 54.2863 34.1123C54.2737 34.2472 54.2227 34.3756 54.1392 34.4824L52.998 35.8983C52.9258 35.9849 52.8354 36.0546 52.7333 36.1024C52.6312 36.1502 52.5198 36.175 52.4071 36.175C52.2943 36.175 52.1829 36.1502 52.0808 36.1024C51.9787 36.0546 51.8884 35.9849 51.8162 35.8983L50.6749 34.4824ZM42.0717 37.4133C42.0325 37.2957 42.0169 37.1715 42.0257 37.0478C42.0345 36.9241 42.0676 36.8034 42.1231 36.6925C42.1786 36.5816 42.2554 36.4827 42.3491 36.4015C42.4428 36.3203 42.5516 36.2584 42.6693 36.2192L43.0119 36.105C42.9855 35.8152 42.9675 35.5235 42.9675 35.2271V24.8437C42.9676 24.6766 43.0119 24.5125 43.0961 24.3682C43.1803 24.2239 43.3013 24.1045 43.4467 24.0222C43.5922 23.94 43.7568 23.8978 43.9239 23.9C44.0909 23.9022 44.2544 23.9487 44.3976 24.0347L48.6662 26.5947C49.8307 26.0306 51.1135 25.7539 52.4071 25.7876C53.7009 25.7541 54.9839 26.0308 56.1489 26.5947L60.4165 24.0347C60.5597 23.9487 60.7232 23.9022 60.8903 23.9C61.0573 23.8978 61.222 23.94 61.3674 24.0222C61.5128 24.1045 61.6338 24.2239 61.718 24.3682C61.8022 24.5125 61.8466 24.6766 61.8466 24.8437V35.2271C61.8466 35.5235 61.8287 35.8152 61.8022 36.105L62.1449 36.2192C62.3827 36.2984 62.5794 36.4687 62.6916 36.6928C62.8039 36.9169 62.8225 37.1764 62.7434 37.4143C62.6642 37.6521 62.4939 37.8488 62.2698 37.961C62.0457 38.0733 61.7861 38.0919 61.5483 38.0128L61.436 37.975C61.1418 38.9345 60.6956 39.8405 60.1144 40.6586L60.6251 41.1693C60.7971 41.3474 60.8922 41.5858 60.8901 41.8333C60.8879 42.0808 60.7886 42.3176 60.6136 42.4926C60.4386 42.6676 60.2019 42.7669 59.9544 42.769C59.7069 42.7712 59.4684 42.676 59.2904 42.5041L58.8731 42.0868C57.1281 43.7439 54.8135 44.6677 52.4071 44.6677C50.0006 44.6677 47.686 43.7439 45.941 42.0868L45.5238 42.5041C45.3457 42.676 45.1073 42.7712 44.8598 42.769C44.6123 42.7669 44.3755 42.6676 44.2005 42.4926C44.0255 42.3176 43.9262 42.0808 43.9241 41.8333C43.9219 41.5858 44.0171 41.3474 44.189 41.1693L44.6997 40.6586C44.1185 39.8405 43.6723 38.9345 43.3782 37.975C42.6457 38.1751 42.2256 37.8702 42.0717 37.4133ZM44.8687 35.4858L48.333 34.3313C48.5708 34.2522 48.8303 34.2708 49.0544 34.3831C49.2786 34.4953 49.4489 34.692 49.528 34.9298C49.6071 35.1676 49.5885 35.4272 49.4763 35.6513C49.364 35.8754 49.1674 36.0457 48.9295 36.1248L45.1707 37.3756C45.374 38.0551 45.6724 38.7025 46.0571 39.2984L48.9078 36.4477C49.0859 36.2757 49.3243 36.1806 49.5718 36.1827C49.8193 36.1849 50.0561 36.2842 50.2311 36.4592C50.4061 36.6342 50.5054 36.8709 50.5075 37.1184C50.5097 37.3659 50.4145 37.6044 50.2426 37.7824L47.2748 40.7502C48.6659 42.0536 50.5008 42.7789 52.4071 42.7789C54.3134 42.7789 56.1482 42.0536 57.5393 40.7502L54.5716 37.7824C54.3996 37.6044 54.3045 37.3659 54.3066 37.1184C54.3088 36.8709 54.408 36.6342 54.5831 36.4592C54.7581 36.2842 54.9948 36.1849 55.2423 36.1827C55.4898 36.1806 55.7283 36.2757 55.9063 36.4477L58.757 39.2984C59.1417 38.7025 59.4401 38.0551 59.6434 37.3756L55.8846 36.123C55.6468 36.0438 55.4501 35.8735 55.3379 35.6494C55.2256 35.4253 55.207 35.1657 55.2861 34.9279C55.3652 34.6901 55.5356 34.4934 55.7597 34.3812C55.9838 34.2689 56.2433 34.2503 56.4812 34.3294L59.9455 35.4839C59.9455 35.398 59.9587 35.313 59.9587 35.2253V26.5107L56.669 28.4845C56.5271 28.5701 56.3651 28.6168 56.1994 28.6199C56.0337 28.6231 55.8701 28.5826 55.7251 28.5024C54.7166 27.9258 53.5682 27.6395 52.4071 27.6755C51.245 27.639 50.0955 27.9252 49.0862 28.5024C48.9412 28.5826 48.7776 28.6231 48.6119 28.6199C48.4462 28.6168 48.2842 28.5701 48.1423 28.4845L44.8554 26.5107V35.2271C44.8554 35.3149 44.8658 35.3999 44.8687 35.4858Z" fill="#FFFFF3"/>
<path d="M92.7256 29.5L94.8376 25.836H94.8856L99.6536 17.5H102.918L95.9896 29.5H92.7256ZM94.8056 27.82L88.8216 17.5H92.1496L96.9176 25.772L94.8056 27.82ZM102.608 29.5V20.38H105.568V28.172L104.672 27.276H110.192L109.456 28.172V20.38H112.416V28.172L111.6 27.276H117.2L116.304 28.172V20.38H119.264V29.5H102.608ZM129.474 29.5L129.074 26.188L129.506 24.94L129.074 23.708L129.474 20.38H132.562L132.002 24.94L132.562 29.5H129.474ZM130.21 24.94C130.05 25.9107 129.746 26.7587 129.298 27.484C128.85 28.1987 128.284 28.7587 127.602 29.164C126.919 29.5587 126.151 29.756 125.298 29.756C124.402 29.756 123.612 29.5533 122.93 29.148C122.258 28.7427 121.73 28.1827 121.346 27.468C120.962 26.7427 120.77 25.9 120.77 24.94C120.77 23.98 120.962 23.1427 121.346 22.428C121.73 21.7027 122.258 21.1373 122.93 20.732C123.612 20.3267 124.402 20.124 125.298 20.124C126.151 20.124 126.919 20.3267 127.602 20.732C128.284 21.1267 128.85 21.6813 129.298 22.396C129.756 23.1107 130.06 23.9587 130.21 24.94ZM123.778 24.94C123.778 25.4307 123.879 25.868 124.082 26.252C124.284 26.6253 124.562 26.924 124.914 27.148C125.276 27.3613 125.692 27.468 126.162 27.468C126.631 27.468 127.074 27.3613 127.49 27.148C127.916 26.924 128.29 26.6253 128.61 26.252C128.93 25.868 129.17 25.4307 129.33 24.94C129.17 24.4493 128.93 24.0173 128.61 23.644C128.29 23.26 127.916 22.9613 127.49 22.748C127.074 22.524 126.631 22.412 126.162 22.412C125.692 22.412 125.276 22.524 124.914 22.748C124.562 22.9613 124.284 23.26 124.082 23.644C123.879 24.0173 123.778 24.4493 123.778 24.94ZM144.842 25.724C144.756 26.5133 144.458 27.212 143.946 27.82C143.444 28.428 142.794 28.9027 141.994 29.244C141.204 29.5853 140.314 29.756 139.322 29.756C138.223 29.756 137.252 29.5533 136.41 29.148C135.567 28.7427 134.911 28.1773 134.442 27.452C133.972 26.7267 133.738 25.8893 133.738 24.94C133.738 23.9907 133.972 23.1587 134.442 22.444C134.911 21.7187 135.567 21.1533 136.41 20.748C137.252 20.332 138.223 20.124 139.322 20.124C140.314 20.124 141.204 20.2947 141.994 20.636C142.794 20.9773 143.444 21.452 143.946 22.06C144.458 22.6573 144.756 23.3613 144.842 24.172H141.882C141.764 23.5853 141.471 23.1373 141.002 22.828C140.543 22.508 139.983 22.348 139.322 22.348C138.799 22.348 138.34 22.4493 137.946 22.652C137.562 22.8547 137.263 23.1533 137.05 23.548C136.836 23.932 136.73 24.396 136.73 24.94C136.73 25.484 136.836 25.948 137.05 26.332C137.263 26.716 137.562 27.0093 137.946 27.212C138.34 27.4147 138.799 27.516 139.322 27.516C139.994 27.516 140.559 27.356 141.018 27.036C141.476 26.7053 141.764 26.268 141.882 25.724H144.842ZM148.704 21.404H151.68V29.5H148.704V21.404ZM145.168 20.38H155.232V22.636H145.168V20.38ZM167.092 20.38H170.068V29.5H167.092V20.38ZM156.42 29.5V20.38H159.364V28.748L158.436 27.388H161.828C162.276 27.388 162.623 27.2813 162.868 27.068C163.113 26.8547 163.236 26.5507 163.236 26.156C163.236 25.7613 163.113 25.4573 162.868 25.244C162.623 25.02 162.276 24.908 161.828 24.908H158.436V22.892H162.308C163.097 22.892 163.785 23.0307 164.372 23.308C164.959 23.5853 165.412 23.9693 165.732 24.46C166.063 24.9507 166.228 25.5267 166.228 26.188C166.228 26.8493 166.063 27.4307 165.732 27.932C165.412 28.4333 164.959 28.8227 164.372 29.1C163.796 29.3667 163.119 29.5 162.34 29.5H156.42ZM171.967 29.5V20.38H174.879V27.9L174.207 27.708L179.343 20.38H183.167V29.5H180.239V21.804L180.927 22.012L175.663 29.5H171.967ZM177.471 19.58C176.404 19.58 175.546 19.3187 174.895 18.796C174.244 18.2733 173.839 17.516 173.679 16.524H175.967C176.052 16.9613 176.223 17.2973 176.479 17.532C176.746 17.7667 177.076 17.884 177.471 17.884C177.876 17.884 178.207 17.7667 178.463 17.532C178.73 17.2973 178.9 16.9613 178.975 16.524H181.263C181.114 17.516 180.714 18.2733 180.063 18.796C179.412 19.3187 178.548 19.58 177.471 19.58ZM102.358 47.276V51.724H99.7976V49.5H91.5576V51.724H88.9816V47.276H91.6376L92.2296 47.324H98.8536L99.3976 47.276H102.358ZM90.9176 40.38H100.694V48.892H97.7336V41.196L99.0936 42.556H92.3896L93.5256 41.484C93.6536 41.9427 93.7283 42.3693 93.7496 42.764C93.7816 43.1587 93.7976 43.5267 93.7976 43.868C93.7976 45.3613 93.5576 46.524 93.0776 47.356C92.5976 48.188 91.9203 48.604 91.0456 48.604L89.8296 47.596C90.6723 46.9987 91.0936 45.5587 91.0936 43.276C91.0936 42.828 91.0776 42.364 91.0456 41.884C91.0136 41.3933 90.971 40.892 90.9176 40.38ZM103.733 40.38H106.693V43.132L106.581 43.516V45.884L106.693 46.588V52.14H103.733V40.38ZM105.717 44.94C105.877 43.9587 106.181 43.1107 106.629 42.396C107.077 41.6813 107.642 41.1267 108.325 40.732C109.018 40.3267 109.786 40.124 110.629 40.124C111.525 40.124 112.309 40.3267 112.981 40.732C113.663 41.1373 114.197 41.7027 114.581 42.428C114.965 43.1427 115.157 43.98 115.157 44.94C115.157 45.9 114.965 46.7427 114.581 47.468C114.197 48.1827 113.663 48.7427 112.981 49.148C112.309 49.5533 111.525 49.756 110.629 49.756C109.775 49.756 109.007 49.5587 108.325 49.164C107.653 48.7587 107.087 48.1987 106.629 47.484C106.181 46.7587 105.877 45.9107 105.717 44.94ZM112.149 44.94C112.149 44.4493 112.047 44.0173 111.845 43.644C111.642 43.26 111.359 42.9613 110.997 42.748C110.645 42.524 110.234 42.412 109.765 42.412C109.295 42.412 108.847 42.524 108.421 42.748C108.005 42.9613 107.637 43.26 107.317 43.644C107.007 44.0173 106.767 44.4493 106.597 44.94C106.767 45.4307 107.007 45.868 107.317 46.252C107.637 46.6253 108.005 46.924 108.421 47.148C108.847 47.3613 109.295 47.468 109.765 47.468C110.234 47.468 110.645 47.3613 110.997 47.148C111.359 46.924 111.642 46.6253 111.845 46.252C112.047 45.868 112.149 45.4307 112.149 44.94ZM118.938 52.396C118.298 52.396 117.728 52.316 117.226 52.156C116.736 51.996 116.256 51.756 115.786 51.436V49.34C116.266 49.6493 116.714 49.868 117.13 49.996C117.557 50.1347 118.021 50.204 118.522 50.204C118.97 50.204 119.36 50.108 119.69 49.916C120.032 49.724 120.314 49.372 120.538 48.86L124.186 40.38H127.338L122.874 49.788C122.576 50.428 122.218 50.94 121.802 51.324C121.386 51.708 120.933 51.98 120.442 52.14C119.962 52.3107 119.461 52.396 118.938 52.396ZM119.29 48.78L115.338 40.38H118.602L122.154 48.78H119.29ZM136.07 40.38V42.636H129.926L131.286 41.276V49.5H128.326V40.38H136.07Z" fill="#D36135"/>
</svg>
